<svg width="1000" height="1000"><rect x="0" y="0" width="1000" height="1000" fill="white" /><path d="M 31.6629,937.098 L 84.86,881.648 L 122.74,826.942 L 160.209,718.756 L 135.578,500.254 L 118.039,363.549 L 168.696,212.046 L 239.704,146.999 L 351.888,97.7561 L 731.959,72.6862 " style="fill:none;stroke:#999999;stroke-width:5;stroke-linecap:butt;stroke-linejoin:miter;stroke-miterlimit:4;stroke-dasharray:none;stroke-opacity:1" /><circle cx="31.6629" cy="937.098" r="10" fill="black" /><circle cx="84.86" cy="881.648" r="10" fill="black" /><circle cx="122.74" cy="826.942" r="10" fill="black" /><circle cx="160.209" cy="718.756" r="10" fill="black" /><circle cx="135.578" cy="500.254" r="10" fill="black" /><circle cx="118.039" cy="363.549" r="10" fill="black" /><circle cx="168.696" cy="212.046" r="10" fill="black" /><circle cx="239.704" cy="146.999" r="10" fill="black" /><circle cx="351.888" cy="97.7561" r="10" fill="black" /><circle cx="731.959" cy="72.6862" r="10" fill="black" /><path d="M 31.6629,937.098 C 227.173,793.621 140.225,564.42 118.039,363.549" style="fill:none;stroke:#000000;stroke-width:2.52959;stroke-linecap:butt;stroke-linejoin:miter;stroke-miterlimit:4;stroke-dasharray:none;stroke-opacity:1" /><circle cx="31.6629" cy="937.098" r="10" fill="red" /><circle cx="118.039" cy="363.549" r="10" fill="blue" /><text x="290" y="250" fill="black" style="font-size: 14px;font-family: monospace;" xml:space="preserve">-------  ----------------  ----------------  ------------</text><text x="290" y="270" fill="black" style="font-size: 14px;font-family: monospace;" xml:space="preserve">(-1, 0)  (-1, 0)           (-1, 0)           (-1, 0)</text><text x="290" y="290" fill="black" style="font-size: 14px;font-family: monospace;" xml:space="preserve">(-1, 0)  (0, 0)            (-1, 0)           (-1, 0)</text><text x="290" y="310" fill="black" style="font-size: 14px;font-family: monospace;" xml:space="preserve">(-1, 0)  (0, 33.7544)      (1, 0)            (-1, 0)</text><text x="290" y="330" fill="black" style="font-size: 14px;font-family: monospace;" xml:space="preserve">(-1, 0)  (0, 1.63578e-26)  (2, 33.7544)      (2, 0)</text><text x="290" y="350" fill="black" style="font-size: 14px;font-family: monospace;" xml:space="preserve">(-1, 0)  (0, 1.41202)      (3, 1.63578e-26)  (3, 33.7544)</text><text x="290" y="370" fill="black" style="font-size: 14px;font-family: monospace;" xml:space="preserve">(-1, 0)  (0, 78.283)       (-1, 0)           (-1, 0)</text><text x="290" y="390" fill="black" style="font-size: 14px;font-family: monospace;" xml:space="preserve">(-1, 0)  (-1, 0)           (-1, 0)           (-1, 0)</text><text x="290" y="410" fill="black" style="font-size: 14px;font-family: monospace;" xml:space="preserve">(-1, 0)  (-1, 0)           (-1, 0)           (-1, 0)</text><text x="290" y="430" fill="black" style="font-size: 14px;font-family: monospace;" xml:space="preserve">(-1, 0)  (-1, 0)           (-1, 0)           (-1, 0)</text><text x="290" y="450" fill="black" style="font-size: 14px;font-family: monospace;" xml:space="preserve">(-1, 0)  (-1, 0)           (-1, 0)           (-1, 0)</text><text x="290" y="470" fill="black" style="font-size: 14px;font-family: monospace;" xml:space="preserve">-------  ----------------  ----------------  ------------</text><text x="290" y="600" fill="red" style="font-size: 30px;font-familly: monospace;">start: 0</text><text x="290" y="650" fill="blue" style="font-size: 30px;font-familly: monospace;">end: 5</text><text x="290" y="700" fill="green" style="font-size: 30px;font-familly: monospace;">delta: 78.283</text></svg>