<?xml version="1.0" encoding="UTF-8" standalone="no"?>
<svg
   xmlns:svg="http://www.w3.org/2000/svg"
   xmlns="http://www.w3.org/2000/svg"
   xmlns:sodipodi="http://sodipodi.sourceforge.net/DTD/sodipodi-0.dtd"
   xmlns:inkscape="http://www.inkscape.org/namespaces/inkscape"
   sodipodi:docname="path-1.svg"
   inkscape:version="1.1-dev (f6c45d51db, 2020-06-08, custom)"
   id="svg6"
   version="1.1"
   viewBox="0 0 1000 1000"
   height="1000"
   width="1000">
  <defs
     id="defs2">
    <inkscape:path-effect
       simplify_just_coalesce="false"
       simplify_individual_paths="false"
       helper_size="0"
       smooth_angles="360"
       threshold="0.000251256"
       steps="1"
       lpeversion="1"
       is_visible="true"
       id="path-effect833"
       effect="simplify" />
    <inkscape:path-effect
       effect="simplify"
       id="path-effect829"
       is_visible="true"
       lpeversion="1"
       steps="1"
       threshold="0.000251256"
       smooth_angles="360"
       helper_size="0"
       simplify_individual_paths="false"
       simplify_just_coalesce="false" />
    <inkscape:path-effect
       simplify_just_coalesce="false"
       simplify_individual_paths="false"
       helper_size="0"
       smooth_angles="360"
       threshold="0.000251256"
       steps="1"
       lpeversion="1"
       is_visible="true"
       id="path-effect825"
       effect="simplify" />
  </defs>
  <sodipodi:namedview
     inkscape:window-maximized="1"
     inkscape:window-y="27"
     inkscape:window-x="0"
     inkscape:window-height="1016"
     inkscape:window-width="1920"
     viewbox-height="1000"
     units="px"
     showgrid="false"
     inkscape:current-layer="layer1"
     inkscape:document-units="px"
     inkscape:cy="510.79308"
     inkscape:cx="535.32406"
     inkscape:zoom="0.7"
     inkscape:pageshadow="2"
     inkscape:pageopacity="0.0"
     borderopacity="1.0"
     bordercolor="#666666"
     pagecolor="#ffffff"
     id="base" />
  <g
     id="layer1"
     inkscape:groupmode="layer"
     inkscape:label="Layer 1">
    <path
       inkscape:original-d="m 190.16759,52.518485 c -21.47169,0.624734 -43.3605,-2.635589 -64.06983,4.374019 -4.91546,1.663766 -10.53112,4.274632 -14.70289,7.403456 -6.31886,4.739145 -1.90862,3.811454 -8.57143,7.142857 -6.698345,3.349174 -13.822359,5.031644 -18.571426,11.428571 -1.755617,2.364793 -2.73158,5.253448 -4.528547,7.586975 -5.588709,7.257454 -5.697131,3.683408 -10,11.428567 -4.984794,8.97263 -1.24742,5.5875 -4.286848,15.721 -1.279831,4.26698 -5.995633,9.03307 -7.142857,12.85715 -0.96755,3.22517 -0.779851,6.6959 -1.428571,10 -0.981937,5.00125 -2.726031,9.85005 -3.459037,14.8938 -0.02963,0.20388 0.02851,17.06291 0,17.47894 -1.081756,15.78358 -2.888833,32.06913 -1.428571,47.93439 1.250403,13.58523 8.205966,31.48417 14.899074,42.96701 1.829923,3.13946 4.194123,5.94307 6.070251,9.05513 1.143609,1.89699 1.690087,4.13702 2.971802,5.94356 1.169035,1.64773 3.215059,2.57244 4.285714,4.28572 1.35979,2.17596 1.435672,5.01208 2.858843,7.14713 6.151101,9.22788 25.187553,17.23067 34.088483,23.52369 5.5406,3.91724 10.0172,9.3134 15.86561,12.75421 5.54152,3.26026 11.95076,4.74659 17.92398,7.12533 2.3824,0.94875 4.67716,2.15266 7.14285,2.85714 5.1975,1.485 15.21451,0 20.22919,0 7.14847,0 23.96407,1.67648 30.17417,-1.42857 2.12959,-1.06479 3.73458,-2.96294 5.71428,-4.28571 4.81488,-3.21715 9.66214,-6.43434 14.82675,-9.05348 30.36002,-15.39651 -17.03761,12.75462 29.22677,-18.00781 3.64125,-2.42116 7.99031,-3.75414 11.39745,-6.49497 2.55246,-2.0533 4.15754,-5.06426 6.17763,-7.64308 1.46825,-1.87435 3.4497,-3.48493 4.28571,-5.71429 0.66881,-1.78348 -0.52328,-3.88281 0,-5.71429 0.47168,-1.65086 2.18081,-2.7076 2.85714,-4.28571 2.71601,-6.33736 3.80421,-13.56217 5.77594,-20.12421 0.74498,-2.47935 2.20235,-4.71369 2.88443,-7.21108 3.2203,-11.7909 1.45578,-25.18569 1.45578,-37.30617 0,-13.49259 0,-26.98518 0,-40.47778 0,-6.78579 0.96424,-14.67886 0,-21.42857 -0.70309,-4.92161 -2.97761,-9.48932 -4.28572,-14.28571 -0.54926,-2.01395 -1.76221,-7.81013 -2.85714,-10 -1.0648,-2.12959 -3.40145,-3.50363 -4.28572,-5.71429 -0.72918,-1.82295 -0.55052,-3.95818 -1.42857,-5.71428 -1.20467,-2.40936 -4.32837,-3.40443 -5.71428,-5.71429 -0.77475,-1.29125 -0.59328,-3.03277 -1.42857,-4.28571 -1.12067,-1.680999 -2.97092,-2.751787 -4.28572,-4.285717 -5.91326,-6.89881 -11.4525,-12.876289 -18.57143,-18.571429 -2.16819,-1.734556 -4.66092,-3.040832 -7.14285,-4.285714 -1.73813,-0.871802 -3.92183,-0.539722 -5.66041,-1.41061 -1.55209,-0.777472 -2.68793,-2.334927 -4.33314,-2.88875 -1.3421,-0.451788 -2.87502,0.345584 -4.24831,0 -1.49745,-0.376828 -2.884,-3.425175 -4.23183,-4.231829 -1.82733,-1.093629 -3.88818,-1.761479 -5.71429,-2.857143 -1.15493,-0.692959 -1.66243,-2.235268 -2.85714,-2.857143 -1.64697,-0.857286 -3.7445,-0.523366 -5.40117,-1.361738 -2.7177,-1.375309 -6.29584,-6.2738 -8.50953,-7.080928 -2.76815,-1.009289 -9.97473,0.551054 -11.96602,0.812356 z"
       inkscape:path-effect="#path-effect825"
       id="path823"
       d="m 190.16759,52.518485 c -17.42815,0.513472 -35.0211,-1.617193 -52.30696,1.420964 -9.29347,1.633417 -18.51861,4.707454 -26.26916,10.210228 -1.86025,1.320749 -3.06943,3.302894 -4.79409,4.814679 -2.146,1.881117 -4.85832,2.973811 -7.451278,4.08607 -5.407609,2.319609 -11.184095,4.683195 -14.869747,9.520535 -2.185773,2.868781 -3.541331,6.218958 -5.738911,9.122651 -1.512468,1.998445 -3.690001,3.315938 -5.432591,5.0832 -2.371378,2.404952 -3.775289,5.554628 -5.338301,8.505638 -0.945835,1.78576 -0.991296,3.81135 -1.179344,5.79865 -0.270278,2.85631 -0.844013,5.75188 -2.074882,8.34856 -1.827613,3.85559 -5.244418,6.89551 -6.418564,11.03142 -1.121299,3.94976 -0.963275,8.09473 -1.88311,12.10182 -0.995941,4.33863 -2.970374,8.55476 -3.009068,13.0173 -0.052,5.99729 0.364151,12.01185 -0.04665,17.99384 -1.129213,16.44319 -3.459064,33.05683 -1.121992,49.45995 1.55351,10.90356 5.200239,21.42525 9.819347,31.38165 2.427138,5.23165 5.189953,10.32311 8.631986,14.96979 1.598793,2.15834 2.984955,4.4697 3.947045,6.9842 0.714387,1.86711 1.989291,3.45513 3.615342,4.60482 1.727304,1.22128 2.731,3.1505 3.225582,5.16621 0.516725,2.10595 1.438928,4.09564 2.889737,5.74185 4.58862,5.20664 10.68825,8.7366 16.588712,12.2453 6.02102,3.58039 12.48042,6.52308 17.98407,10.89657 5.64998,4.48977 10.58695,10.04288 17.28263,13.08466 6.01639,2.73319 12.50417,4.24843 18.48547,7.07592 2.81711,1.33171 5.91754,1.8488 9.02766,1.89603 6.27301,0.0953 12.50498,-0.74932 18.79234,-0.547 7.29963,0.23489 14.66357,0.75657 21.92565,-0.32535 2.50199,-0.37275 4.88559,-1.40582 6.7806,-3.11168 2.9716,-2.67498 6.43439,-4.71082 9.79434,-6.84665 5.53812,-3.52043 11.83116,-5.68885 17.42605,-9.10493 0.60445,-0.36906 2.32948,-0.6737 0.9698,0.16135 -0.69758,0.42842 -3.01316,1.67064 -2.63452,1.34605 3.26558,-2.79944 6.86063,-5.19789 10.4366,-7.5789 4.25696,-2.83444 8.31773,-5.99817 12.78635,-8.48706 4.2476,-2.36579 9.14156,-4.03044 12.18876,-8.07092 1.9204,-2.54638 3.73139,-5.16384 5.86612,-7.55522 1.36231,-1.52609 2.81978,-3.50445 2.16226,-5.63477 -0.66522,-2.15528 0.21323,-4.19106 1.67155,-5.91244 1.55796,-1.839 2.13963,-4.26134 2.84789,-6.50944 1.72367,-5.47111 2.20952,-11.33446 4.48929,-16.60116 1.1382,-2.62946 2.34197,-5.23286 2.94709,-8.06783 2.55193,-11.9557 0.89592,-24.21148 0.90874,-36.30525 0.0145,-13.7285 -0.20227,-27.4592 0.023,-41.18565 0.11896,-7.24727 1.26718,-14.65292 -0.45803,-21.77604 -1.21461,-5.01493 -3.16365,-9.78483 -4.53625,-14.77307 -0.7418,-2.69582 -0.99177,-5.6837 -2.62522,-7.99562 -1.46828,-2.07814 -3.79996,-3.6601 -4.23948,-6.36296 -0.34916,-2.14717 -0.67662,-4.47894 -2.41169,-6.05731 -1.81051,-1.647 -4.63712,-2.852 -4.89603,-5.5494 -0.1722,-1.79405 -1.0875,-3.40142 -2.49857,-4.511167 -2.49426,-1.961636 -4.38356,-4.525448 -6.49083,-6.868931 -4.95925,-5.515154 -9.94886,-11.21548 -16.19004,-15.250319 -2.12349,-1.372807 -4.21852,-3.067106 -6.69572,-3.584335 -2.16067,-0.451139 -4.54562,-0.50227 -6.2609,-2.140982 -1.35472,-1.294248 -3.17243,-2.390268 -5.09738,-1.781507 -1.69782,0.536933 -3.12528,-0.617036 -4.03678,-1.952319 -0.88164,-1.291535 -2.06005,-2.272957 -3.46678,-3.030825 -1.96812,-1.060311 -4.54895,-1.501762 -5.72097,-3.558645 -1.05184,-1.845975 -3.32214,-1.931197 -5.18958,-2.248996 -2.78025,-0.47314 -4.58471,-2.861488 -6.52192,-4.686683 -1.48534,-1.399451 -3.00401,-3.091448 -5.22851,-3.208559 -3.49266,-0.183875 -6.94739,0.594793 -10.3802,1.112013 z"
       style="fill:none;stroke:#000000;stroke-width:1px;stroke-linecap:butt;stroke-linejoin:miter;stroke-opacity:1" />
    <path
       style="fill:none;stroke:#000000;stroke-width:1px;stroke-linecap:butt;stroke-linejoin:miter;stroke-opacity:1"
       d="m 193.79866,488.64907 c -23.67719,-4.01551 -48.78096,-3.00653 -71.1096,6.55508 -19.70064,8.43624 -35.890247,23.92605 -46.595157,42.37088 -14.142605,24.36806 -19.91056,52.90045 -19.688144,80.86152 0.261339,32.85431 8.200715,65.93655 24.637334,94.50173 12.354034,21.47006 30.331657,40.21378 52.896477,50.98636 19.93667,9.51788 42.90672,11.74371 64.50891,7.74252 11.49656,-2.12941 22.86404,-5.31619 33.57265,-10.03676 20.30438,-8.95058 37.25608,-24.68128 48.71599,-43.60161 15.06912,-24.87915 21.51348,-54.30969 21.23645,-83.19785 -0.30474,-31.77804 -8.29898,-63.8079 -24.90568,-91.05185 -12.46556,-20.45024 -30.5865,-37.88986 -52.78124,-47.38691 -9.68064,-4.14231 -20.01168,-6.72482 -30.48799,-7.74311 z"
       id="path827"
       inkscape:path-effect="#path-effect829"
       inkscape:original-d="M 193.79866,488.64907 C -12.909072,454.1053 28.82033,827.49156 217.8329,766.84344 344.7657,729.62367 321.07237,501.1204 193.79866,488.64907 Z" />
    <path
       inkscape:original-d="M 757.76193,510.3938 C 549.4163,478.08253 590.80791,847.13157 781.79617,788.58817 909.84434,748.24288 887.15652,525.74569 757.76193,510.3938 Z"
       inkscape:path-effect="#path-effect833"
       id="path831"
       d="m 757.76193,510.3938 c -23.93207,-3.76586 -49.20279,-2.52436 -71.7059,7.1356 -19.78957,8.49511 -36.16519,23.92515 -47.04977,42.40448 -14.56426,24.72651 -20.42332,53.84407 -19.95782,82.31555 0.54367,33.25293 9.14593,66.69351 26.60085,95.14105 12.97336,21.14361 31.70514,39.20232 54.66692,49.14479 20.70962,8.96728 44.11027,10.06541 66.15055,5.91313 19.26873,-3.63013 37.78995,-11.66263 53.10676,-24.01787 20.27727,-16.35658 34.07667,-39.75123 41.1381,-64.63891 9.463,-33.35189 8.32357,-69.48999 -2.33123,-102.40489 -8.54333,-26.39212 -23.78032,-51.12118 -45.74301,-68.42917 -15.75146,-12.41315 -34.95346,-20.28548 -54.87545,-22.56376 z"
       style="fill:none;stroke:#000000;stroke-width:1px;stroke-linecap:butt;stroke-linejoin:miter;stroke-opacity:1" />
  </g>
</svg>
