<svg width="1000" height="1000"><rect x="0" y="0" width="1000" height="1000" fill="white" /><path d="M 31.662906 937.09795 C 195.64575 788.0162 175.83065 649.54939 135.57806 500.25426 C 95.325472 350.95912 65.350407 23.517719 731.95868 72.686151" style="fill:none;stroke:#999999;stroke-width:5;stroke-linecap:butt;stroke-linejoin:miter;stroke-miterlimit:4;stroke-dasharray:none;stroke-opacity:1" /><path d="M 351.888322765625 97.75610671875 C 442.191002125 71.6400495625 565.30661175 60.394042999999996 731.95868 72.686151" style="fill:none;stroke:#000000;stroke-width:2.52959;stroke-linecap:butt;stroke-linejoin:miter;stroke-miterlimit:4;stroke-dasharray:none;stroke-opacity:1" /><circle cx="31.6629" cy="937.098" r="10" fill="black" /><circle cx="84.86" cy="881.648" r="10" fill="black" /><circle cx="122.74" cy="826.942" r="10" fill="black" /><circle cx="160.209" cy="718.756" r="10" fill="black" /><circle cx="135.578" cy="500.254" r="10" fill="black" /><circle cx="118.039" cy="363.549" r="10" fill="black" /><circle cx="168.696" cy="212.046" r="10" fill="black" /><circle cx="239.704" cy="146.999" r="10" fill="black" /><circle cx="351.888" cy="97.7561" r="10" fill="black" /><circle cx="731.959" cy="72.6862" r="10" fill="black" /><path d="M 31.6629,937.098 L 84.86,881.648 L 122.74,826.942 L 160.209,718.756 L 135.578,500.254 L 118.039,363.549 L 168.696,212.046 L 239.704,146.999 L 351.888,97.7561 L 731.959,72.6862 " style="fill:none;stroke:#000000;stroke-width:2.52959;stroke-linecap:butt;stroke-linejoin:miter;stroke-miterlimit:4;stroke-dasharray:none;stroke-opacity:1" /><circle cx="351.888" cy="97.7561" r="10" fill="red" /><circle cx="731.959" cy="72.6862" r="10" fill="blue" /></svg>